<svg width="32" height="32" viewBox="0 0 32 32" fill="none" xmlns="http://www.w3.org/2000/svg">
<g id="Frame">
<path id="Vector 3" d="M16.9233 4.67603C17.2065 4.84256 17.0266 5.55675 17.0543 5.84714C17.0713 6.02585 17.2551 5.75404 17.2994 5.72336C17.4003 5.65352 17.4955 5.83336 17.5137 5.90903C17.5672 6.13209 17.5702 6.36019 17.6731 6.56599C17.7424 6.70457 17.8459 6.82582 17.8636 6.98493C17.8823 7.15371 17.9962 7.34671 18.0707 7.50384C18.118 7.60387 18.2874 7.95952 18.3801 7.97276C18.4856 7.98783 18.5068 8.08986 18.5943 8.10367C18.6985 8.12012 18.7982 8.17434 18.9038 8.19889C19.271 8.28429 19.5979 8.44644 19.9916 8.44644C20.2398 8.44644 20.4794 8.45838 20.7152 8.40597C20.8078 8.38539 20.8382 8.32042 20.9413 8.3179C21.0777 8.31458 21.076 8.24293 21.1984 8.19889C21.6191 8.04743 20.5152 7.22228 20.5009 7.21344C20.0292 6.92109 19.4806 6.7825 19.0085 6.48506C18.8631 6.39349 18.733 6.27251 18.5753 6.20181C18.4611 6.15061 18.3392 6.12409 18.2373 6.04709C18.1757 6.00053 17.8277 5.58864 18.004 5.80905C18.3407 6.22995 18.983 6.50654 19.4298 6.7945C20.0181 7.17364 20.7073 7.3669 21.3507 7.61333C21.6285 7.71972 21.9413 7.71649 22.2314 7.77995C22.428 7.82294 22.6291 7.83441 22.8218 7.88945C23.0382 7.95128 23.2667 8.04847 23.4811 8.09891C23.7969 8.17321 24.102 8.29867 24.3785 8.43692C24.475 8.48519 24.6338 8.45208 24.7427 8.49167C24.9716 8.57491 25.2023 8.64276 25.4306 8.72494C25.8617 8.88014 25.4925 9.5837 25.4925 9.90557C25.4925 10.618 25.3639 11.3101 25.3639 12.024C25.3639 12.3593 25.3181 12.8054 25.521 13.0976C25.8091 13.5124 25.7924 13.9811 25.7924 14.4782C25.7924 14.7964 25.8272 15.1358 25.79 15.4517C25.7728 15.5976 25.6723 15.7067 25.6638 15.8587C25.6565 15.991 25.5803 16.1701 25.5353 16.2967C25.4139 16.6383 25.2926 17.015 25.2354 17.3726C25.2098 17.5324 25.1273 17.6921 25.0854 17.8511C25.0531 17.9739 25.0596 18.1154 25.0164 18.2343C24.9229 18.4915 24.885 18.7904 24.8165 19.0722C24.7739 19.247 24.7709 19.3972 24.6784 19.5625C24.5551 19.7827 24.6075 19.9531 24.3856 20.1195C24.3228 20.1666 24.171 20.3241 24.1642 20.4004C24.1551 20.504 24.1358 20.663 24.0595 20.7431C23.9717 20.8353 23.8021 20.9529 23.7786 21.0859C23.7731 21.1172 23.6929 21.2001 23.6929 21.1716" stroke="#8EC4CD" stroke-width="3"/>
<path id="Vector 4" d="M16.9661 27.3413C17.1202 27.3322 17.2814 27.1805 17.4231 27.1176C17.6687 27.0084 17.9772 26.8443 18.1681 26.6534C18.4644 26.3571 18.8303 26.1958 19.1321 25.9488C19.2213 25.8759 19.2836 25.7775 19.3749 25.7132C19.4677 25.6479 19.6417 25.5736 19.7058 25.4775C19.8723 25.2278 20.2866 25.1117 20.3961 24.8563C20.4482 24.7346 20.7191 24.7222 20.8222 24.5897C20.9293 24.4519 21.1109 24.4455 21.253 24.3635C21.6274 24.1476 21.9857 23.932 22.3218 23.659C22.7408 23.3185 23.2934 23.1515 23.6881 22.7568C23.8211 22.6238 23.9552 22.4341 24.1213 22.3379C24.2904 22.24 24.1513 22.3036 24.0546 22.345C23.8488 22.4332 23.66 22.5412 23.4691 22.6616C23.2228 22.8169 22.9563 22.8867 22.7312 23.0758C22.4442 23.3169 22.0856 23.5135 21.829 23.7851C21.3568 24.2852 20.9229 24.8302 20.5841 25.4109C20.5425 25.4823 20.4327 25.531 20.3747 25.618C20.3098 25.7153 20.2529 25.7761 20.2176 25.8822C20.1941 25.9527 19.9097 26.0086 19.8462 26.0131C19.7265 26.0216 19.6439 26.1416 19.5154 26.1416C19.3754 26.1416 19.169 26.1859 19.0417 26.2368C18.9579 26.2703 18.8759 26.2478 18.7894 26.2725C18.6816 26.3033 18.6205 26.3559 18.4895 26.3559C18.4295 26.3559 18.0037 26.4247 18.1134 26.3297C18.3626 26.1137 18.7887 26.0209 19.0988 25.9274C19.3735 25.8446 19.6047 25.6562 19.8772 25.5608C20.101 25.4825 20.2465 25.2661 20.4413 25.1419C20.6257 25.0243 20.8491 24.9804 21.0316 24.8586C21.3289 24.6604 21.7014 24.5465 22.0409 24.423C22.2923 24.3316 22.5461 24.173 22.7907 24.066C22.9863 23.9804 23.1539 23.794 23.2858 23.6328C23.4866 23.3874 23.7779 23.0842 23.9094 22.7949C24.2333 22.0824 24.5926 21.3516 24.5926 20.5503C24.5926 20.3859 24.6783 20.2567 24.6783 20.1004C24.6783 19.979 24.6783 19.8576 24.6783 19.7362C24.6783 19.5215 24.7042 19.2401 24.783 19.0388C24.8149 18.9572 24.9923 18.6187 24.7425 18.7531C24.5876 18.8366 24.4577 19.0721 24.2689 19.0721C24.1718 19.0721 23.8691 19.1304 23.8118 19.0388C23.8109 19.0372 24.0126 19.0109 24.0332 19.0078C24.167 18.9882 24.3099 18.9725 24.445 18.9912C24.7514 19.0334 24.9948 19.1553 25.1734 19.4053C25.2619 19.5292 25.2676 19.6993 25.3233 19.8386C25.392 20.0103 25.4495 20.1337 25.4495 20.3218C25.4495 20.7728 25.3296 21.6358 24.7425 21.7262C24.5479 21.7561 24.414 21.8947 24.207 21.8999C23.9812 21.9056 23.7694 21.8936 23.5476 21.8594C23.475 21.8483 23.2581 21.8282 23.231 21.7619C23.1244 21.5 23.1358 21.2129 23.1358 20.9359C23.1358 20.4559 23.0911 19.8147 23.2977 19.372C23.3161 19.3326 23.1933 19.4812 23.1906 19.4839C22.9518 19.7227 22.708 19.9616 22.4622 20.1932C22.0783 20.555 21.6278 20.959 21.3792 21.4286C21.2009 21.7654 21.1947 21.8018 21.4887 21.5143C21.597 21.4083 21.7436 21.2586 21.9076 21.2429C22.0978 21.2248 21.6316 21.8816 21.6172 21.8999C21.3137 22.2874 20.9806 22.651 20.6817 23.0425C20.4746 23.3137 20.8272 23.0292 20.8864 22.9615C21.0508 22.7736 21.1723 22.5512 21.322 22.3522C21.421 22.2207 21.6883 21.8152 21.6362 21.9713C21.5742 22.1576 21.1334 22.3562 21.0007 22.445C20.2555 22.9437 19.4795 23.3573 18.6823 23.7661C18.3561 23.9334 18.0916 24.1492 17.7849 24.3374C17.7616 24.3516 18.0531 24.0556 18.1086 24.0041C18.2298 23.8918 18.6675 23.3452 18.3704 23.7566C18.2499 23.9235 18.1246 24.0873 17.9944 24.2469C17.9506 24.3005 17.8264 24.3734 17.7992 24.4278C17.7786 24.469 17.8912 24.4278 17.9372 24.4278C18.0947 24.4278 18.1703 24.3414 18.3062 24.3112C18.4755 24.2735 18.1152 24.6033 17.9944 24.7277C17.8996 24.8253 17.8158 24.913 17.7801 25.0467C17.7612 25.1176 17.7488 25.1992 17.7182 25.2657C17.6889 25.3295 17.5575 25.4561 17.6278 25.4561C17.6673 25.4561 17.7944 25.3077 17.8277 25.2847C18.0073 25.1613 18.1826 25.03 18.3633 24.9086C18.8722 24.5667 19.4811 24.3814 20.0414 24.1374C20.3515 24.0024 20.2624 24.0236 20.0248 24.2207C19.6686 24.5161 19.3198 24.7201 18.8941 24.8991C18.7394 24.9642 18.2472 25.1519 18.211 25.3514C18.1956 25.436 18.0624 25.5738 17.9848 25.6275C17.8032 25.7532 17.5699 25.8139 17.404 25.9798C17.2809 26.1029 17.3088 25.6783 17.3088 25.6322C17.3088 25.4269 17.3228 25.2821 17.4469 25.1133C17.5791 24.9335 17.505 24.7265 17.4802 24.5159C17.4471 24.2341 17.404 23.9502 17.3945 23.6661C17.3745 23.0656 17.3945 22.5114 17.3945 21.9094C17.3945 21.7966 17.4447 20.8833 17.3517 20.8716C17.3445 20.8707 17.1783 21.6428 17.6135 21.6428C17.9593 21.6428 18.2988 21.595 18.6418 21.5571C19.3832 21.4754 20.138 21.5271 20.8555 21.2977C21.7358 21.0162 22.5978 20.6704 23.4691 20.3622C23.9555 20.1902 24.476 20.0748 24.9211 19.8052C25.4684 19.4738 23.7749 20.3765 23.2215 20.6979C22.8273 20.9267 22.4348 21.1026 22.0076 21.2572C21.8845 21.3018 21.4086 21.5724 21.6124 21.2715C21.8925 20.8581 22.2545 20.4018 22.4408 19.9362C22.4854 19.8246 22.3475 19.8486 22.2837 19.8624C21.6838 19.9922 21.0979 20.2292 20.5032 20.386C19.4686 20.6589 18.3007 20.8915 17.3445 21.3977C17.2704 21.4369 17.5468 21.19 17.5516 21.1858C17.932 20.8564 18.2461 20.4593 18.6275 20.1337C19.0157 19.8023 19.4577 19.6045 19.9057 19.3744C19.9929 19.3296 20.3126 19.0945 20.2937 19.1102C20.0716 19.2953 19.8751 19.5108 19.6511 19.6957C19.3193 19.9696 18.9543 20.1737 18.6037 20.4194C18.4547 20.5238 18.228 20.6553 18.1134 20.8026C18.0852 20.8389 18.7629 20.673 18.7846 20.6645C19.9521 20.2073 21.1065 19.8096 22.317 19.4768C22.6462 19.3862 22.174 19.6983 22.1266 19.7362C21.6199 20.1415 21.142 20.5823 20.6151 20.9621C20.183 21.2735 19.7275 21.5515 19.3083 21.8809C19.1357 22.0165 18.9622 22.1504 18.8513 22.3427C18.8281 22.3829 19.1427 22.2845 19.1631 22.2784C19.5657 22.1564 19.9598 21.9794 20.3485 21.819C20.4537 21.7756 20.6788 21.525 20.6317 21.6286C20.5039 21.9097 20.0589 22.1691 19.8415 22.376C19.5576 22.6461 18.7179 23.4584 19.0417 23.2376C19.9077 22.6472 20.8048 22.119 21.6838 21.5476C22.4707 21.0362 23.3418 20.5942 24.0689 20.0004C24.2411 19.8598 24.3363 19.7576 24.5497 19.7576C24.66 19.7576 24.8497 19.6673 24.8497 19.5434C24.8497 19.3249 24.7079 19.3811 24.5259 19.4149C23.7879 19.5518 23.0686 19.8081 22.3408 19.9957C21.5125 20.2091 20.6501 20.2913 19.9224 20.7764C19.5454 21.0277 19.1503 21.1888 18.7703 21.4262C18.6299 21.514 18.5514 21.566 18.5514 21.7285C18.5514 21.9285 18.5514 22.1284 18.5514 22.3284" stroke="#8EC4CD" stroke-width="2" stroke-linecap="round"/>
<path id="Vector 5" d="M17.7372 6.98962C17.4231 6.98962 17.523 7.36174 17.523 7.59898C17.523 7.80472 17.4961 8.02136 17.5658 8.2131C17.6423 8.42327 17.6208 8.59534 17.6539 8.81056C17.6753 8.94986 17.7372 9.02855 17.7372 9.18427C17.7372 9.34931 17.7372 9.51434 17.7372 9.67938C17.7372 10.1507 17.7372 10.622 17.7372 11.0933C17.7372 11.2329 17.7372 11.3726 17.7372 11.5122C17.7372 11.7017 17.6515 11.8356 17.6515 12.0264C17.6515 12.3647 17.5813 12.782 17.4159 13.0761C17.2977 13.2862 17.3643 13.5284 17.2564 13.7307C17.1668 13.8986 17.1047 14.1662 17.0945 14.3591C17.0829 14.5802 16.966 14.8128 16.966 15.0446C16.966 15.2088 16.966 15.3731 16.966 15.5373C16.966 15.7506 16.8608 15.8868 16.9017 16.1157C17.021 16.7838 16.8803 17.3438 16.8803 18.0009C16.8803 18.3584 16.8459 18.706 16.8375 19.0626C16.8353 19.1524 16.5638 19.5662 16.7756 19.6267C16.8445 19.6464 16.9406 19.5871 16.9946 19.5577C17.2327 19.4278 17.4344 19.3455 17.6944 19.2673C18.1546 19.1288 18.64 18.9509 19.0869 18.7722C19.7412 18.5104 20.3582 18.0733 21.0363 17.8629C21.7848 17.6306 22.5911 17.6903 23.3405 17.5058C23.5466 17.4551 24.3301 17.4143 23.9403 17.8319C23.6266 18.168 23.1415 18.3813 22.7168 18.5246C22.6376 18.5514 22.5235 18.6389 22.4383 18.6389C22.3715 18.6389 22.5564 18.5724 22.6216 18.5579C22.6694 18.5473 22.8205 18.5083 22.8311 18.4484C22.8376 18.4117 22.1159 18.4697 22.0837 18.4722C21.9616 18.482 20.2098 18.6248 20.1842 18.4865C20.1602 18.3572 20.6131 18.1984 20.6817 18.1628C21.1943 17.8965 21.6617 17.5504 22.1717 17.2773C22.601 17.0475 23.0482 16.857 23.4833 16.6394C23.6871 16.5375 23.8801 16.4405 24.026 16.2633C24.1402 16.1246 24.1476 16.0774 23.9141 16.0515C23.4788 16.0031 23.0318 16.0611 22.6002 16.1181C21.9357 16.206 21.271 16.2991 20.6079 16.3966C20.1898 16.4581 19.7659 16.5151 19.3511 16.5966C19.174 16.6313 19.3749 16.5605 19.4463 16.5252C20.2371 16.1335 21.1111 15.9505 21.9028 15.5635C21.9986 15.5167 22.1255 15.4741 22.2027 15.3969C22.2875 15.3121 21.979 15.4924 21.8599 15.5064C20.8815 15.621 19.9853 16.054 19.0416 16.3204C18.7763 16.3953 18.496 16.4414 18.2466 16.5632C17.9651 16.7007 18.2607 16.6458 18.3847 16.6037C19.1707 16.337 19.9188 15.9617 20.7078 15.7063C20.8884 15.6479 21.1054 15.568 21.2958 15.5468C21.4998 15.5242 20.9338 15.7405 20.7555 15.842C20.1588 16.1816 19.5861 16.4641 19.0702 16.9227C19.0212 16.9662 18.9528 17.0029 19.0797 17.006C19.6849 17.0207 20.3611 16.6922 20.9316 16.5252C21.8888 16.2449 22.872 15.9463 23.8475 15.7373C23.8749 15.7314 23.9488 15.702 23.9213 15.6968C23.6515 15.6462 23.2598 15.8213 23.0025 15.8777C22.1995 16.0537 21.401 16.2478 20.5983 16.4252C19.913 16.5766 19.1995 16.6836 18.5322 16.906C18.3071 16.981 18.0765 17.0664 17.8943 17.2226C17.7393 17.3554 18.2875 17.1125 18.4823 17.0512C19.1291 16.8476 19.7625 16.605 20.4127 16.4109C21.3503 16.131 22.3065 15.9173 23.2548 15.6778C23.8985 15.5152 24.5538 15.3831 25.1924 15.2017C25.2536 15.1843 25.7133 15.0494 25.3828 15.0494C24.2052 15.0494 23.0609 15.638 21.9028 15.8134C21.5478 15.8672 21.1928 15.9337 20.8364 15.9777C20.6467 16.0011 21.0426 15.7831 21.0744 15.7635C21.9133 15.2457 22.8826 15.0182 23.6832 14.4257C24.0063 14.1867 24.0973 13.9662 23.6118 13.9735C22.4642 13.9906 21.3432 14.2698 20.2365 14.54C20.1947 14.5502 19.6856 14.6898 19.9223 14.6733C20.3379 14.6443 20.6993 14.3692 21.0625 14.1924C21.5218 13.969 22.0094 13.8269 22.4978 13.6831C22.7758 13.6012 23.1061 13.55 23.35 13.3831C23.4827 13.2923 23.2619 13.3312 23.2 13.3332C22.6603 13.3506 22.1331 13.4576 21.6076 13.5759C20.8294 13.7512 20.0616 13.8941 19.2749 14.0187C19.0354 14.0566 18.3159 14.1448 18.5584 14.1448C19.0697 14.1448 19.5962 13.9792 20.0937 13.883C21.0606 13.6961 22.0326 13.5425 23.0025 13.3736C23.0957 13.3574 23.2351 13.331 23.3309 13.2975C23.4118 13.2691 23.4153 13.2399 23.3238 13.2284C22.9894 13.1866 22.6145 13.2688 22.2836 13.3141C21.8737 13.3702 21.462 13.4353 21.0554 13.5117C20.8656 13.5473 20.6732 13.621 20.4793 13.6307C20.4286 13.6332 20.5785 13.608 20.6269 13.5926C21.1604 13.4225 21.6733 13.1789 22.1694 12.9214C22.7524 12.6187 23.4022 12.2962 23.5404 11.605C23.6167 11.2238 23.3567 11.1933 23.0072 11.1885C22.5168 11.1817 21.9833 11.0887 21.5743 11.4003C21.172 11.7069 22.2145 11.4885 22.305 11.467C22.7011 11.3729 23.2011 11.1574 23.3309 10.7267C23.4707 10.2635 22.8402 10.256 22.5478 10.2483C22.5343 10.2479 22.1747 10.261 22.1836 10.2268C22.2008 10.1618 22.3193 9.93381 22.3027 9.88884C22.2932 9.86324 22.2622 9.84901 22.236 9.84124C22.0632 9.78993 21.6842 9.77091 21.5505 9.76507C21.0856 9.74476 20.6299 9.76229 20.1699 9.83172C19.7855 9.88974 19.4517 9.98449 19.113 10.1745C19.0439 10.2132 18.8845 10.2912 18.8464 10.3673C18.8423 10.3755 19.2184 10.2936 19.244 10.284C19.7067 10.1105 20.0059 9.75764 20.2889 9.3747C20.3148 9.33964 20.3939 9.23575 20.3151 9.20331C20.1332 9.1284 19.9482 9.34616 19.8628 9.47229C19.7909 9.57857 19.5728 9.99725 19.8605 9.86028C20.1969 9.70009 19.6746 10.7457 19.6415 10.8362C19.5756 11.0159 19.398 11.6122 19.7557 11.6122C20.1497 11.6122 20.5792 11.0561 20.7602 10.7458C21.0223 10.2964 20.1546 10.9377 20.0747 10.9933C19.7214 11.239 19.3992 11.5142 19.0988 11.8217C18.9806 11.9426 18.9337 12.0782 18.8369 12.2073C18.7093 12.3774 19.1853 11.9611 19.3415 11.8169C19.6911 11.4942 20.0015 11.1433 20.0747 10.6601C20.1039 10.4669 20.2241 9.90049 19.8605 10.0293C19.3345 10.2156 18.6106 10.7784 18.5299 11.3599C18.5105 11.4989 18.4848 11.6038 18.6513 11.6265C19.0433 11.6799 19.398 11.6443 19.7557 11.4646C20.0151 11.3343 20.2441 11.1647 20.4793 10.9981C20.6333 10.889 20.5998 10.9752 20.4865 11.0671C20.0159 11.4487 19.657 11.6635 19.4891 12.293C19.4009 12.6238 19.6038 12.6331 19.9128 12.6262C20.5357 12.6124 21.1246 12.2192 21.6362 11.9026C21.9283 11.7218 22.2262 11.5167 22.4383 11.2409C22.5993 11.0316 22.3152 11.135 22.217 11.1814C21.5485 11.4965 20.5891 12.0368 20.4222 12.8309C20.3961 12.955 20.3242 13.3018 20.4627 13.3927C20.8377 13.6388 21.5929 13.4045 21.9742 13.2855C22.3212 13.1773 22.6231 12.9964 22.9192 12.7904C22.9753 12.7514 22.7409 12.9655 22.6906 13.0071C22.3031 13.3272 23.2288 13.0289 23.3309 12.9975C23.5543 12.9289 23.7779 12.8479 24.007 12.8C24.0121 12.7989 24.29 12.7516 24.2259 12.7333C23.9975 12.6681 23.7171 12.762 23.5119 12.85C23.3979 12.8988 23.2848 12.9536 23.1691 12.9975C23.1065 13.0213 22.9535 13.1335 22.9834 13.0737C23.0117 13.0172 23.1029 12.9967 23.1286 12.9237C23.173 12.798 23.1358 12.6081 23.1358 12.4762C23.1358 12.0919 22.9388 11.7929 22.8882 11.4218C22.8288 10.986 22.7522 10.6264 22.9406 10.2054C23.0554 9.94865 22.9848 9.65433 23.0929 9.40564C23.174 9.21912 23.0993 8.93038 23.2548 8.77486C23.2553 8.77435 23.2861 8.91452 23.2881 8.92244C23.324 9.06593 23.3915 9.18769 23.4547 9.31995C23.5131 9.44209 23.5214 9.52117 23.5214 9.65557C23.5214 9.94959 23.7698 9.82674 24.0022 9.75555C24.0718 9.73423 24.6659 9.45443 24.4378 9.5437C24.28 9.60546 24.1643 9.73585 24.045 9.85076C23.8321 10.0559 23.5935 10.2279 23.3595 10.4078C22.5695 11.0147 21.7324 11.5512 20.9221 12.1263C20.724 12.2669 20.549 12.435 20.3936 12.6214C20.2238 12.8253 19.9759 13.0173 19.8557 13.2546C19.6761 13.6094 19.5598 14.021 19.3177 14.34C19.141 14.573 18.9901 14.7496 18.875 15.016C18.8395 15.0982 18.6586 15.4976 18.5941 15.435C18.2658 15.116 18.08 14.4594 18.08 14.0163C18.08 13.8673 18.0542 13.6899 18.099 13.545C18.1265 13.456 18.2029 13.3834 18.2085 13.2879C18.2124 13.2217 18.1393 13.3797 18.1371 13.3831C17.9735 13.6324 17.8341 13.8957 17.6991 14.1615C17.4236 14.7039 17.2046 15.3143 17.1183 15.9182C17.0286 16.5461 17.146 17.1093 17.3302 17.6986C17.4334 18.029 17.3516 18.4684 17.3516 18.815" stroke="#8EC4CD" stroke-width="2" stroke-linecap="round"/>
<path id="Vector 6" d="M17.4372 4.33317C17.4245 4.12959 17.1758 4.46391 17.0945 4.50455" stroke="#8EC4CD" stroke-width="2" stroke-linecap="round"/>
<path id="Vector" d="M26.6666 17.3333C26.6666 23.9999 21.9999 27.3333 16.4533 29.2666C16.1628 29.365 15.8473 29.3603 15.5599 29.2533C9.99992 27.3333 5.33325 23.9999 5.33325 17.3333V7.99995C5.33325 7.64633 5.47373 7.30719 5.72378 7.05714C5.97383 6.80709 6.31296 6.66662 6.66659 6.66662C9.33325 6.66662 12.6666 5.06662 14.9866 3.03995C15.2691 2.79861 15.6284 2.66602 15.9999 2.66602C16.3714 2.66602 16.7308 2.79861 17.0133 3.03995C19.3466 5.07995 22.6666 6.66662 25.3333 6.66662C25.6869 6.66662 26.026 6.80709 26.2761 7.05714C26.5261 7.30719 26.6666 7.64633 26.6666 7.99995V17.3333Z" stroke="black" stroke-width="2" stroke-linecap="round" stroke-linejoin="round"/>
<path id="Vector_2" d="M16 29.3333V2.66663" stroke="black" stroke-width="2" stroke-linecap="round" stroke-linejoin="round"/>
</g>
</svg>
